<svg width="20" height="20" viewBox="0 0 20 20" fill="none" xmlns="http://www.w3.org/2000/svg">
<path d="M14.1797 2.5H4.17969C3.24219 2.5 2.5 3.24219 2.5 4.17969V15.8203C2.5 16.7578 3.24219 17.5 4.17969 17.5H15.8203C16.7578 17.5 17.5 16.7578 17.5 15.8203V5.82031L14.1797 2.5ZM15.8203 15.8203H4.17969V4.17969H13.4766L15.8203 6.52344V15.8203ZM10 10C8.63281 10 7.5 11.1328 7.5 12.5C7.5 13.8672 8.63281 15 10 15C11.3672 15 12.5 13.8672 12.5 12.5C12.5 11.1328 11.3672 10 10 10ZM5 5H12.5V8.32031H5V5Z" fill="white"/>
</svg>
